<svg width="173" height="40" viewBox="0 0 173 40" fill="none" xmlns="http://www.w3.org/2000/svg">
<path d="M0 21.5989H11.6611C16.2601 21.5989 18.6142 19.5161 18.6142 15.5512V15.4895C18.6142 12.5428 17.1175 10.7532 14.2334 10.244V9.96634C16.6498 9.50351 17.9126 7.92987 17.9126 5.36886V5.29173C17.9126 1.80505 15.7145 0 11.4117 0H0V21.5989ZM4.59897 8.84011V3.0547H10.0398C12.2379 3.0547 13.3292 4.01122 13.3292 5.89341V5.95512C13.3292 7.86816 12.2379 8.84011 10.0398 8.84011H4.59897ZM4.59897 18.5288V11.648H10.1801C12.5965 11.648 13.7969 12.7896 13.7969 15.0266V15.0884C13.7969 17.3717 12.5965 18.5288 10.1801 18.5288H4.59897Z" fill="white"/>
<path d="M22.9462 0V21.5989H27.4828V0H22.9462Z" fill="white"/>
<path d="M36.9751 22C40.6387 22 43.3046 20.3801 44.2867 17.6339L44.5985 17.7111C44.0061 20.7041 44.6297 22 48.2153 22C48.6674 22 49.1195 21.9537 49.4937 21.892L50.0237 19.223L49.2443 19.2076C48.3868 19.1921 48.1374 18.9916 48.1374 17.8962V10.4755C48.1374 6.80365 45.6742 5.04488 40.4205 5.04488C34.8393 5.04488 32.0176 7.2202 32.2514 10.9846L36.7257 11.3548C36.5386 8.87097 37.817 7.74474 40.3269 7.74474C42.5718 7.74474 43.6319 8.56241 43.6319 10.4292V11.3394L39.2045 12.1417C34.777 12.9593 31.8461 14.3478 31.8461 17.7419V17.7882C31.8461 20.4727 33.6857 22 36.9751 22ZM38.7835 19.007C37.2557 19.007 36.4295 18.467 36.4295 17.3562V17.3254C36.4295 15.7363 37.8793 15.0884 40.7478 14.533L43.6319 13.9776V14.7335C43.6319 17.2174 41.3714 19.007 38.7835 19.007Z" fill="white"/>
<path d="M53.8414 21.5989H58.378V14.0701C58.378 10.4292 60.1084 8.17672 62.9769 8.17672C65.1127 8.17672 66.1728 9.27209 66.1728 11.3703V21.5989H70.7095V10.2903C70.7095 6.89621 68.6984 5.10659 64.9568 5.10659C61.5583 5.10659 59.2354 6.58766 57.8635 9.67321L57.5517 9.53436C58.1753 7.69846 58.3936 6.60309 58.3936 5.39972H53.8414V21.5989Z" fill="white"/>
<path d="M84.2083 21.9846C89.5556 21.9846 92.5488 19.8555 93.0009 15.7363L88.4175 15.2272C88.2305 17.8191 86.7962 19.1304 84.2239 19.1304C81.3398 19.1304 79.8432 17.3408 79.8432 13.8079V13.0519C79.8432 9.59607 81.3554 7.85273 84.1771 7.85273C86.7806 7.85273 88.1369 9.28752 88.3396 12.1571L92.8606 11.648C92.502 7.28191 89.618 5.01403 84.1927 5.01403C78.2998 5.01403 75.1974 7.86816 75.1974 13.3296V13.5302C75.1974 19.0842 78.2686 21.9846 84.2083 21.9846Z" fill="white"/>
<path d="M97.5201 21.5989H102.057V14.0701C102.057 10.4292 103.772 8.19215 106.656 8.19215C108.791 8.19215 109.852 9.27209 109.852 11.3703V21.5989H114.388V10.2903C114.388 6.89621 112.362 5.10659 108.636 5.10659C105.206 5.10659 102.899 6.58766 101.542 9.65778L101.215 9.53436C101.823 7.80645 102.041 6.52595 102.057 4.9986V0H97.5201V21.5989Z" fill="white"/>
<path d="M123.803 22C127.466 22 130.132 20.3801 131.114 17.6339L131.426 17.7111C130.833 20.7041 131.457 22 135.043 22C135.495 22 135.947 21.9537 136.321 21.892L136.851 19.223L136.072 19.2076C135.214 19.1921 134.965 18.9916 134.965 17.8962V10.4755C134.965 6.80365 132.502 5.04488 127.248 5.04488C121.667 5.04488 118.845 7.2202 119.079 10.9846L123.553 11.3548C123.366 8.87097 124.644 7.74474 127.154 7.74474C129.399 7.74474 130.459 8.56241 130.459 10.4292V11.3394L126.032 12.1417C121.604 12.9593 118.673 14.3478 118.673 17.7419V17.7882C118.673 20.4727 120.513 22 123.803 22ZM125.611 19.007C124.083 19.007 123.257 18.467 123.257 17.3562V17.3254C123.257 15.7363 124.707 15.0884 127.575 14.533L130.459 13.9776V14.7335C130.459 17.2174 128.199 19.007 125.611 19.007Z" fill="white"/>
<path d="M140.669 21.5989H145.205V14.8261C145.205 10.5989 146.53 9.04067 149.991 8.79383L152.221 8.62412L151.691 4.8906C148.027 5.1683 146.328 6.30996 144.644 9.67321L144.348 9.53436C145.081 7.37447 145.252 6.51052 145.221 5.39972H140.669V21.5989Z" fill="white"/>
<path d="M162.243 21.892C165.61 21.892 167.809 20.3492 168.915 17.5568L169.243 17.6648C168.713 19.3619 168.432 20.7041 168.417 21.5989H173V0H168.463V4.39691C168.463 6.09397 168.697 7.46704 169.258 9.3338L168.947 9.45722C167.84 6.68022 165.626 5.07574 162.243 5.07574C157.566 5.07574 155.103 7.89902 155.103 13.2987V13.6844C155.103 19.0687 157.566 21.892 162.243 21.892ZM163.958 19.115C161.152 19.115 159.686 17.3408 159.686 13.8387V13.129C159.686 9.6115 161.152 7.82188 163.958 7.82188C166.889 7.82188 168.463 9.70407 168.463 13.2062V13.7616C168.463 17.2482 166.889 19.115 163.958 19.115Z" fill="white"/>
<path d="M2.62119 32.7802L0.121289 29.1348H1.92715L3.6252 31.7425L5.33672 29.1348H7.1291L4.62246 32.7802L7.25713 36.5873H5.46475L3.6252 33.7977L1.79238 36.5873H0L2.62119 32.7802Z" fill="white"/>
<path d="M7.43232 29.1348H9.15732L10.6734 33.3597C10.9025 33.9616 11.0553 34.5276 11.1316 35.0577H11.1855C11.226 34.8106 11.3001 34.5119 11.4079 34.1615C11.5157 33.8066 12.0862 32.1311 13.1194 29.1348H14.831L11.6438 37.5778C11.0643 39.1276 10.0984 39.9025 8.74629 39.9025C8.3959 39.9025 8.05449 39.8644 7.72207 39.788V38.5347C7.96016 38.5886 8.23193 38.6155 8.5374 38.6155C9.30107 38.6155 9.83789 38.173 10.1479 37.2881L10.4241 36.5873L7.43232 29.1348Z" fill="white"/>
<path d="M23.1123 39.222H21.6366V36.5873H16.529V39.222H15.0668V35.3609H15.6732C16.2033 34.6018 16.6233 33.6854 16.9333 32.6117C17.2478 31.5336 17.4342 30.3746 17.4926 29.1348H22.0207V35.3609H23.1123V39.222ZM20.4642 35.3609V30.3477H18.8604C18.7751 31.273 18.5954 32.185 18.3214 33.0834C18.0519 33.9818 17.7217 34.741 17.3309 35.3609H20.4642Z" fill="white"/>
<path d="M31.1039 32.8476C31.1039 34.0649 30.7917 35.015 30.1673 35.6979C29.5429 36.3807 28.6736 36.7221 27.5596 36.7221C26.8633 36.7221 26.2479 36.5648 25.7133 36.2504C25.1787 35.9359 24.7677 35.4845 24.4802 34.896C24.1927 34.3075 24.0489 33.6247 24.0489 32.8476C24.0489 31.6392 24.3589 30.6958 24.9788 30.0175C25.5987 29.3392 26.4725 29 27.6 29C28.6781 29 29.5316 29.3481 30.1605 30.0444C30.7895 30.7362 31.1039 31.6706 31.1039 32.8476ZM25.6796 32.8476C25.6796 34.5681 26.3152 35.4283 27.5865 35.4283C28.8443 35.4283 29.4732 34.5681 29.4732 32.8476C29.4732 31.145 28.8398 30.2938 27.573 30.2938C26.9082 30.2938 26.4253 30.5139 26.1243 30.9541C25.8278 31.3943 25.6796 32.0255 25.6796 32.8476Z" fill="white"/>
<path d="M36.6023 32.7532V29.1348H38.078V32.7532L40.9485 29.1348H42.6196L39.6885 32.7397L42.8824 36.5873H41.1372L38.078 32.8071V36.5873H36.6023V32.8071L33.5499 36.5873H31.8114L34.9986 32.7397L32.0742 29.1348H33.7453L36.6023 32.7532Z" fill="white"/>
<path d="M47.2893 36.7221C46.1303 36.7221 45.2229 36.3852 44.567 35.7113C43.9156 35.033 43.5899 34.1009 43.5899 32.9149C43.5899 31.6976 43.8932 30.7407 44.4996 30.0444C45.1061 29.3481 45.9394 29 46.9995 29C47.9833 29 48.7605 29.2987 49.331 29.8962C49.9015 30.4937 50.1867 31.3157 50.1867 32.3624V33.2182H45.2206C45.2431 33.9414 45.4385 34.4984 45.8068 34.8893C46.1752 35.2756 46.694 35.4687 47.3634 35.4687C47.8036 35.4687 48.2124 35.4283 48.5897 35.3475C48.9716 35.2621 49.3804 35.1229 49.8161 34.9297V36.2167C49.4298 36.4009 49.039 36.5312 48.6437 36.6075C48.2483 36.6839 47.7969 36.7221 47.2893 36.7221ZM46.9995 30.1994C46.4964 30.1994 46.0921 30.3589 45.7866 30.6778C45.4856 30.9968 45.306 31.4617 45.2476 32.0727H48.6302C48.6212 31.4572 48.4729 30.9923 48.1855 30.6778C47.898 30.3589 47.5026 30.1994 46.9995 30.1994Z" fill="white"/>
<path d="M54.9911 36.7221C53.8636 36.7221 53.0056 36.3941 52.4171 35.7383C51.8331 35.0779 51.5411 34.1323 51.5411 32.9015C51.5411 31.6481 51.8466 30.6846 52.4575 30.0107C53.0729 29.3369 53.9602 29 55.1191 29C55.9053 29 56.6128 29.146 57.2417 29.438L56.7633 30.7115C56.0939 30.451 55.5414 30.3207 55.1057 30.3207C53.8164 30.3207 53.1718 31.1765 53.1718 32.888C53.1718 33.7235 53.3312 34.3524 53.6502 34.7747C53.9736 35.1925 54.4453 35.4014 55.0652 35.4014C55.7705 35.4014 56.4376 35.2262 57.0665 34.8758V36.2571C56.7835 36.4233 56.4803 36.5424 56.1568 36.6143C55.8379 36.6861 55.4493 36.7221 54.9911 36.7221Z" fill="white"/>
<path d="M64.418 29.1348V30.3746H61.9922V36.5873H60.402V30.3746H57.9762V29.1348H64.418Z" fill="white"/>
<path d="M72.322 31.0417C72.322 31.9222 71.8076 32.4545 70.7789 32.6387V32.6926C71.3539 32.76 71.7941 32.9419 72.0996 33.2384C72.4051 33.5349 72.5578 33.9189 72.5578 34.3906C72.5578 35.0959 72.2883 35.6395 71.7492 36.0213C71.2147 36.3986 70.4352 36.5873 69.411 36.5873H65.8532V29.1348H69.3976C71.3472 29.1348 72.322 29.7704 72.322 31.0417ZM70.9339 34.2963C70.9339 33.9369 70.7946 33.6831 70.5161 33.5349C70.2376 33.3821 69.8198 33.3058 69.2628 33.3058H67.4367V35.4148H69.3032C70.3903 35.4148 70.9339 35.042 70.9339 34.2963ZM70.7385 31.1765C70.7385 30.88 70.6217 30.6666 70.3881 30.5363C70.159 30.4016 69.8153 30.3342 69.3571 30.3342H67.4367V32.1266H69.1213C69.6514 32.1266 70.0534 32.0592 70.3274 31.9244C70.6015 31.7852 70.7385 31.5358 70.7385 31.1765Z" fill="white"/>
<path d="M77.4498 36.7221C76.2908 36.7221 75.3834 36.3852 74.7275 35.7113C74.0762 35.033 73.7505 34.1009 73.7505 32.9149C73.7505 31.6976 74.0537 30.7407 74.6602 30.0444C75.2666 29.3481 76.0999 29 77.1601 29C78.1439 29 78.921 29.2987 79.4915 29.8962C80.062 30.4937 80.3473 31.3157 80.3473 32.3624V33.2182H75.3812C75.4036 33.9414 75.599 34.4984 75.9674 34.8893C76.3357 35.2756 76.8546 35.4687 77.5239 35.4687C77.9642 35.4687 78.373 35.4283 78.7503 35.3475C79.1321 35.2621 79.5409 35.1229 79.9767 34.9297V36.2167C79.5903 36.4009 79.1995 36.5312 78.8042 36.6075C78.4089 36.6839 77.9574 36.7221 77.4498 36.7221ZM77.1601 30.1994C76.6569 30.1994 76.2526 30.3589 75.9472 30.6778C75.6462 30.9968 75.4665 31.4617 75.4081 32.0727H78.7907C78.7817 31.4572 78.6335 30.9923 78.346 30.6778C78.0585 30.3589 77.6632 30.1994 77.1601 30.1994Z" fill="white"/>
<path d="M83.7299 29.1348V32.1266H87.2405V29.1348H88.824V36.5873H87.2405V33.3731H83.7299V36.5873H82.1464V29.1348H83.7299Z" fill="white"/>
<path d="M92.6783 29.1348V32.1266H96.189V29.1348H97.7725V36.5873H96.189V33.3731H92.6783V36.5873H91.0948V29.1348H92.6783Z" fill="white"/>
<path d="M104.706 36.5873L104.389 35.5496H104.336C103.976 36.0033 103.615 36.3133 103.251 36.4795C102.887 36.6412 102.42 36.7221 101.849 36.7221C101.117 36.7221 100.544 36.5244 100.131 36.1291C99.7221 35.7338 99.5177 35.1745 99.5177 34.4513C99.5177 33.6831 99.8029 33.1036 100.373 32.7128C100.944 32.322 101.813 32.1086 102.981 32.0727L104.268 32.0322V31.6347C104.268 31.1585 104.156 30.8036 103.931 30.57C103.711 30.3319 103.367 30.2129 102.9 30.2129C102.518 30.2129 102.152 30.269 101.802 30.3813C101.452 30.4937 101.115 30.6262 100.791 30.7789L100.279 29.6469C100.683 29.4357 101.126 29.2763 101.607 29.1685C102.087 29.0562 102.541 29 102.968 29C103.916 29 104.63 29.2066 105.11 29.6199C105.596 30.0332 105.838 30.6823 105.838 31.5673V36.5873H104.706ZM102.348 35.5092C102.923 35.5092 103.383 35.3497 103.729 35.0308C104.079 34.7073 104.255 34.2559 104.255 33.6764V33.0295L103.298 33.0699C102.552 33.0969 102.009 33.2227 101.667 33.4473C101.33 33.6674 101.162 34.0065 101.162 34.4647C101.162 34.7972 101.261 35.0555 101.458 35.2396C101.656 35.4193 101.952 35.5092 102.348 35.5092Z" fill="white"/>
<path d="M108.81 36.5873H107.038L109.113 33.5349C108.61 33.3911 108.215 33.1351 107.927 32.7667C107.64 32.3938 107.496 31.9334 107.496 31.3854C107.496 30.6801 107.747 30.1298 108.25 29.7345C108.754 29.3347 109.441 29.1348 110.312 29.1348H113.709V36.5873H112.118V33.7168H110.616L108.81 36.5873ZM109.039 31.3988C109.039 31.7807 109.183 32.0682 109.47 32.2613C109.762 32.45 110.153 32.5443 110.643 32.5443H112.118V30.3342H110.393C109.962 30.3342 109.627 30.4263 109.389 30.6104C109.156 30.7946 109.039 31.0574 109.039 31.3988Z" fill="white"/>
<path d="M124.375 29.1348V30.3746H121.141V36.5873H119.557V29.1348H124.375Z" fill="white"/>
<path d="M130.473 36.5873L130.157 35.5496H130.103C129.743 36.0033 129.382 36.3133 129.018 36.4795C128.654 36.6412 128.187 36.7221 127.616 36.7221C126.884 36.7221 126.311 36.5244 125.898 36.1291C125.489 35.7338 125.285 35.1745 125.285 34.4513C125.285 33.6831 125.57 33.1036 126.141 32.7128C126.711 32.322 127.58 32.1086 128.748 32.0727L130.035 32.0322V31.6347C130.035 31.1585 129.923 30.8036 129.698 30.57C129.478 30.3319 129.135 30.2129 128.667 30.2129C128.286 30.2129 127.92 30.269 127.569 30.3813C127.219 30.4937 126.882 30.6262 126.558 30.7789L126.046 29.6469C126.451 29.4357 126.893 29.2763 127.374 29.1685C127.854 29.0562 128.308 29 128.735 29C129.683 29 130.397 29.2066 130.878 29.6199C131.363 30.0332 131.605 30.6823 131.605 31.5673V36.5873H130.473ZM128.115 35.5092C128.69 35.5092 129.15 35.3497 129.496 35.0308C129.847 34.7073 130.022 34.2559 130.022 33.6764V33.0295L129.065 33.0699C128.319 33.0969 127.776 33.2227 127.434 33.4473C127.097 33.6674 126.929 34.0065 126.929 34.4647C126.929 34.7972 127.028 35.0555 127.225 35.2396C127.423 35.4193 127.72 35.5092 128.115 35.5092Z" fill="white"/>
<path d="M139.941 36.5873H138.344V30.3746H136.288C136.163 31.9738 135.992 33.2227 135.776 34.1211C135.565 35.0195 135.287 35.6754 134.941 36.0887C134.599 36.502 134.155 36.7086 133.607 36.7086C133.261 36.7086 132.971 36.6592 132.737 36.5604V35.3205C132.904 35.3834 133.07 35.4148 133.236 35.4148C133.694 35.4148 134.054 34.9005 134.314 33.8718C134.579 32.8386 134.786 31.2596 134.934 29.1348H139.941V36.5873Z" fill="white"/>
<path d="M145.466 36.7221C144.307 36.7221 143.4 36.3852 142.744 35.7113C142.092 35.033 141.767 34.1009 141.767 32.9149C141.767 31.6976 142.07 30.7407 142.676 30.0444C143.283 29.3481 144.116 29 145.176 29C146.16 29 146.937 29.2987 147.508 29.8962C148.078 30.4937 148.363 31.3157 148.363 32.3624V33.2182H143.397C143.42 33.9414 143.615 34.4984 143.984 34.8893C144.352 35.2756 144.871 35.4687 145.54 35.4687C145.98 35.4687 146.389 35.4283 146.766 35.3475C147.148 35.2621 147.557 35.1229 147.993 34.9297V36.2167C147.607 36.4009 147.216 36.5312 146.82 36.6075C146.425 36.6839 145.974 36.7221 145.466 36.7221ZM145.176 30.1994C144.673 30.1994 144.269 30.3589 143.963 30.6778C143.662 30.9968 143.483 31.4617 143.424 32.0727H146.807C146.798 31.4572 146.65 30.9923 146.362 30.6778C146.075 30.3589 145.679 30.1994 145.176 30.1994Z" fill="white"/>
<path d="M153.943 36.7221C152.999 36.7221 152.267 36.3829 151.746 35.7046H151.652C151.715 36.3335 151.746 36.7153 151.746 36.8501V39.9025H150.163V29.1348H151.443C151.479 29.274 151.553 29.6064 151.665 30.132H151.746C152.24 29.3773 152.981 29 153.97 29C154.9 29 155.623 29.3369 156.139 30.0107C156.661 30.6846 156.921 31.6302 156.921 32.8476C156.921 34.0649 156.656 35.015 156.126 35.6979C155.6 36.3807 154.873 36.7221 153.943 36.7221ZM153.559 30.2938C152.93 30.2938 152.469 30.4779 152.177 30.8463C151.89 31.2146 151.746 31.8031 151.746 32.6117V32.8476C151.746 33.755 151.89 34.4131 152.177 34.8219C152.465 35.2262 152.934 35.4283 153.586 35.4283C154.134 35.4283 154.556 35.2037 154.852 34.7545C155.149 34.3053 155.297 33.6651 155.297 32.8341C155.297 31.9985 155.149 31.3674 154.852 30.9406C154.56 30.5094 154.129 30.2938 153.559 30.2938Z" fill="white"/>
<path d="M162.015 36.7221C160.856 36.7221 159.949 36.3852 159.293 35.7113C158.642 35.033 158.316 34.1009 158.316 32.9149C158.316 31.6976 158.619 30.7407 159.226 30.0444C159.832 29.3481 160.665 29 161.725 29C162.709 29 163.486 29.2987 164.057 29.8962C164.627 30.4937 164.913 31.3157 164.913 32.3624V33.2182H159.947C159.969 33.9414 160.164 34.4984 160.533 34.8893C160.901 35.2756 161.42 35.4687 162.089 35.4687C162.53 35.4687 162.938 35.4283 163.316 35.3475C163.698 35.2621 164.106 35.1229 164.542 34.9297V36.2167C164.156 36.4009 163.765 36.5312 163.37 36.6075C162.974 36.6839 162.523 36.7221 162.015 36.7221ZM161.725 30.1994C161.222 30.1994 160.818 30.3589 160.513 30.6778C160.212 30.9968 160.032 31.4617 159.974 32.0727H163.356C163.347 31.4572 163.199 30.9923 162.911 30.6778C162.624 30.3589 162.229 30.1994 161.725 30.1994Z" fill="white"/>
<path d="M167.473 36.5873H165.701L167.776 33.5349C167.273 33.3911 166.878 33.1351 166.591 32.7667C166.303 32.3938 166.159 31.9334 166.159 31.3854C166.159 30.6801 166.411 30.1298 166.914 29.7345C167.417 29.3347 168.104 29.1348 168.976 29.1348H172.372V36.5873H170.782V33.7168H169.279L167.473 36.5873ZM167.702 31.3988C167.702 31.7807 167.846 32.0682 168.134 32.2613C168.426 32.45 168.816 32.5443 169.306 32.5443H170.782V30.3342H169.057C168.626 30.3342 168.291 30.4263 168.053 30.6104C167.819 30.7946 167.702 31.0574 167.702 31.3988Z" fill="white"/>
</svg>
